# xmcd
#
# Track frame offsets:
#	150
#	17861
#	35577
#	57139
#	72973
#	91295
#	109589
#	128679
#	151321
#	170007
#	187898
#	208116
#	223332
#	240819
#	256413
#	272145
#	288073
#	302551
#	321069
#	341955
#
# Disc length: 4777 seconds
#
# Revision: 0
# Processed by: cddbd v1.5.2PL0 Copyright (c) Steve Scherf et al.
# Submitted via: EZCDAudioConverter 2.4.0.1
#
DISCID=1f12a714
DTITLE=Various Artist - Sertanejos Românticos - Volume 06
DYEAR=2005
DGENRE=Sertanejo
TTITLE0=Cezar and Paulinho - Amor Além da Vida
TTITLE1=Wilson and Soraia - Pra Sempre Vou Te Amar
TTITLE2=Wilson and Soraia - Total Eclipse do Amor
TTITLE3=Wilson and Soraia - Mais Uma Noite Sem Você
TTITLE4=Ataíde and Alexandre - Pelo Interfone
TTITLE5=Zezé Di Camargo and Luciano - Na Hora H
TTITLE6=Leandro and Leonardo - Amor Dividido
TTITLE7=Guilherme and Santiago - Me Esqueça (Forever)
TTITLE8=Chitãozinho and Xororó - Encontro Casual
TTITLE9=Cezar and Paulinho - Aqueles Olhos
TTITLE10=Daniel - Só Seu Amor Não Vai Embora
TTITLE11=João Paulo and Daniel - Alguém
TTITLE12=Leonardo - Feito Tatuagem
TTITLE13=Christian and Ralf - Cheiro De Shampoo
TTITLE14=Bruno and Marrone - Ligação Urbana
TTITLE15=Edson and Hudson - Porta-Retrato
TTITLE16=Gian and Giovani - Amante Anônimo
TTITLE17=Cleiton and Camargo - Pense Com Coração
TTITLE18=Rick and Renner - Instante Mágico
TTITLE19=João Mineiro and Marciano - Seu Amor Ainda é Tudo
EXTD=
EXTT0=
EXTT1=
EXTT2=
EXTT3=
EXTT4=
EXTT5=
EXTT6=
EXTT7=
EXTT8=
EXTT9=
EXTT10=
EXTT11=
EXTT12=
EXTT13=
EXTT14=
EXTT15=
EXTT16=
EXTT17=
EXTT18=
EXTT19=
PLAYORDER=
